<svg width="24" height="24" viewBox="0 0 24 24" fill="none" xmlns="http://www.w3.org/2000/svg">
<path fill-rule="evenodd" clip-rule="evenodd" d="M21.5001 12C21.5001 17.2467 17.2468 21.5 12.0001 21.5C6.75342 21.5 2.50012 17.2467 2.50012 12C2.50012 6.75329 6.75342 2.5 12.0001 2.5C17.2468 2.5 21.5001 6.75329 21.5001 12ZM23.0001 12C23.0001 18.0751 18.0753 23 12.0001 23C5.92499 23 1.00012 18.0751 1.00012 12C1.00012 5.92487 5.92499 1 12.0001 1C18.0753 1 23.0001 5.92487 23.0001 12ZM12.0001 7.25C12.4143 7.25001 12.7501 7.5858 12.7501 8.00001L12.7501 11.25H16C16.4142 11.25 16.75 11.5858 16.75 12C16.75 12.4142 16.4142 12.75 16 12.75H12.75L12.75 16C12.75 16.4142 12.4142 16.75 12 16.75C11.5858 16.75 11.25 16.4142 11.25 16L11.25 12.75H8C7.58579 12.75 7.25 12.4142 7.25 12C7.25 11.5858 7.58579 11.25 8 11.25H11.2501L11.2501 7.99999C11.2501 7.58577 11.5859 7.24999 12.0001 7.25Z" fill="#676F78"/>
</svg>
